<?xml version="1.0" standalone="no"?>
<!DOCTYPE svg PUBLIC "-//W3C//DTD SVG 1.1//EN" "http://www.w3.org/Graphics/SVG/1.1/DTD/svg11.dtd" >
<svg xmlns="http://www.w3.org/2000/svg" xmlns:xlink="http://www.w3.org/1999/xlink" version="1.1">
<metadata></metadata>
<defs>
<font id="rachanaregular" horiz-adv-x="900" >
<font-face units-per-em="2048" ascent="1638" descent="-410" />
<missing-glyph horiz-adv-x="566" />
<glyph horiz-adv-x="0" />
<glyph horiz-adv-x="0" />
<glyph unicode="&#xd;" horiz-adv-x="466" />
<glyph horiz-adv-x="682" />
<glyph unicode=" "  horiz-adv-x="566" />
<glyph unicode="&#x09;" horiz-adv-x="566" />
<glyph unicode="&#xa0;" horiz-adv-x="566" />
<glyph unicode="!" horiz-adv-x="408" d="M146 96.5q0 57.5 39 92t94 34.5t95 -37t40 -91t-38.5 -94.5t-95 -40.5t-95.5 39.5t-39 97zM168 1080v14q-2 51 28.5 89.5t81 38.5t80.5 -42t26 -108l-71 -758h-76z" />
<glyph unicode="&#x22;" horiz-adv-x="495" d="M137 1212h145l-10 -420h-125zM350 1206h145l-10 -420h-125z" />
<glyph unicode="#" horiz-adv-x="1071" d="M152 337v88h176l79 374h-168v87h187l67 317h123l-67 -317h244l68 317h123l-68 -317h160v-87h-179l-80 -374h172v-88h-191l-69 -330h-123l71 330h-245l-71 -330h-123l71 330h-157zM450 425h245l80 374h-245z" />
<glyph unicode="$" horiz-adv-x="899" d="M145 168l65 103q102 -187 271 -199v425q-318 67 -318 324q0 140 88.5 230t229.5 109v57h97v-53q177 -13 305 -159l-64 -79q-96 132 -241 148v-391q150 -46 213.5 -96.5t87 -108t23.5 -136.5q0 -145 -90 -243.5t-234 -112.5v-57h-97v57q-208 15 -336 182zM314 883 q0 -75 52 -113q41 -31 115 -57v354q-74 -17 -120.5 -64t-46.5 -120zM578 77q74 19 123 76.5t49 134t-45 120t-127 66.5v-397z" />
<glyph unicode="%" horiz-adv-x="1079" d="M150 822q0 104 53.5 179t152.5 75q66 0 114 -38.5t69 -95t21 -140.5t-52 -159t-152 -75q-68 0 -116 38q-90 71 -90 216zM268 822q0 -190 87.5 -190t87.5 190t-87.5 190t-87.5 -190zM293 17l527 908l69 -33l-527 -906zM670 238.5q0 104.5 53.5 179.5t151.5 75t151.5 -76.5 t53.5 -179t-52.5 -176.5t-152.5 -74t-152.5 73.5t-52.5 178zM787 239q0 -190 87.5 -190t87.5 190t-87.5 190t-87.5 -190z" />
<glyph unicode="&#x26;" horiz-adv-x="1296" d="M159 286q0 133 84 235q72 88 188 167q-66 139 -66 256t71.5 197t180 80t168.5 -59.5t60 -156.5q0 -151 -168 -263q-30 -20 -72 -44q52 -106 142.5 -231t98.5 -137q87 100 173 312l75 -62q-45 -124 -196 -308q132 -192 247 -192q62 0 132 81l35 -64q-117 -100 -243 -100 q-165 0 -283 155q-82 -79 -163.5 -117t-195 -38t-191 84t-77.5 205zM316 329q0 -92 54.5 -168.5t148.5 -76.5q55 0 117 39t100 88q-175 208 -278 416q-67 -53 -104.5 -129.5t-37.5 -168.5zM516 995q0 -92 60 -231q130 83 159 158q13 35 13 86.5t-32.5 95t-91.5 43.5 q-108 0 -108 -152z" />
<glyph unicode="'" horiz-adv-x="282" d="M137 1212h145l-10 -420h-125z" />
<glyph unicode="(" horiz-adv-x="580" d="M140 420.5q0 237.5 105 449.5t293 359l48 -72q-248 -340 -248 -735.5t248 -735.5l-48 -72q-189 149 -293.5 359t-104.5 447.5z" />
<glyph unicode=")" horiz-adv-x="580" d="M138 -314q248 340 248 735.5t-248 735.5l48 72q188 -148 293 -359.5t105 -449t-104.5 -447t-293.5 -359.5z" />
<glyph unicode="*" horiz-adv-x="782" d="M150 995.5q0 41.5 24.5 71t49.5 29.5t55 -18.5t54.5 -39.5t54.5 -47.5t36 -31.5q-4 18 -16 60q-28 92 -28 132t23.5 59t60.5 19t61 -18t24 -49.5t-7 -65.5t-19 -76t-16 -61q5 4 34.5 32.5t51.5 48.5q63 55 99 55t60 -25.5t24 -58.5q0 -54 -60 -72l-165 -48l181 -54 q53 -16 53 -57t-30.5 -71.5t-62 -30.5t-54.5 20l-132 121q3 -11 16 -56q28 -97 28 -133t-24.5 -58.5t-60 -22.5t-61 20t-25.5 48.5t8 63.5t21.5 80t16.5 58q-5 -5 -33.5 -34.5t-49.5 -48.5q-59 -57 -97 -57t-62 25.5t-24 55.5q0 59 60 79l161 52l-181 50q-49 13 -49 54.5z " />
<glyph unicode="+" horiz-adv-x="984" d="M153 353v147h321v383h187v-383h328v-147h-328v-383h-187v383h-321z" />
<glyph unicode="," horiz-adv-x="414" d="M147 107.5q0 55.5 38 90.5t94 35q136 0 136 -173q0 -84 -48.5 -182.5t-126.5 -150.5l-54 48q41 33 74.5 80.5t33.5 84t-29 36.5q-54 0 -86 38t-32 93.5z" />
<glyph unicode="-" horiz-adv-x="737" d="M148 383v117h595v-117h-595z" />
<glyph unicode="." horiz-adv-x="413" d="M146 111q0 57 39.5 90.5t93.5 33.5t94.5 -36t40.5 -89t-38.5 -91.5t-95 -38.5t-95.5 37t-39 94z" />
<glyph unicode="/" horiz-adv-x="980" d="M141 -221l736 1446h109l-736 -1446h-109z" />
<glyph unicode="0" horiz-adv-x="1005" d="M202 529q0 279 128 429q101 117 274 117q249 0 346 -243q53 -133 53 -304q0 -81 -12 -156t-41 -148t-74 -126q-99 -120 -272 -120q-250 0 -348 246q-54 133 -54 305zM375 507q0 -72 3.5 -120.5t17 -111.5t35 -109.5t62.5 -79t94.5 -32.5t95.5 26.5t67.5 73.5t42.5 99 t24.5 116.5t10.5 111t3 96t-3.5 97t-16.5 109t-34.5 106.5t-62 76.5t-90.5 31.5t-88 -20t-63 -52t-43.5 -78t-28.5 -91t-17 -98q-9 -79 -9 -151z" />
<glyph unicode="1" horiz-adv-x="497" d="M156 796v108q87 56 178 149h159q-26 -271 -26 -528.5t26 -525.5h-193v873z" />
<glyph unicode="2" horiz-adv-x="948" d="M203 6v31q-2 190 99 285q52 50 174 105.5t155 77.5q118 80 118 225q0 113 -62 170t-176 57q-162 0 -275 -155l-31 68q72 101 156 153.5t197 52.5q160 0 274.5 -95.5t114.5 -261t-128 -246.5q-41 -26 -149.5 -71t-155.5 -80.5t-69.5 -84t-22.5 -134.5h517v-97 q-222 11 -394 11t-342 -11z" />
<glyph unicode="3" horiz-adv-x="960" d="M183 115l40 79q45 -61 116.5 -94t166 -33t170.5 62t76 162.5t-60 161.5t-153 61h-148v94h104q92 0 150 29q106 53 106 149t-82 152t-167 56q-168 0 -250 -128l-22 63q57 70 142.5 109t163.5 39t145.5 -18.5t127.5 -52.5t99 -91t39 -127.5t-48.5 -128t-122.5 -95.5 q83 -36 133.5 -104t50.5 -151.5t-38 -148t-100 -102.5q-126 -80 -281 -80q-227 0 -358 137z" />
<glyph unicode="4" horiz-adv-x="1082" d="M195 229v108q39 44 146.5 159t161.5 179.5t138 191.5t131 187h166q-17 -274 -17 -430.5t2 -268.5h155v-125h-152q4 -108 12 -229h-193v228h-550zM332 355h413v517z" />
<glyph unicode="5" horiz-adv-x="1018" d="M181 112l43 77q126 -122 314 -122q119 0 197 65t78 184.5t-83 205t-207 85.5t-216 -83l-81 36l49 497q178 -17 349.5 -17t353.5 17v-146h-594l-44 -275q126 59 245 59t214.5 -40.5t158 -124.5t62.5 -184.5t-39.5 -170.5t-104.5 -111q-134 -85 -307 -85q-247 0 -388 133z " />
<glyph unicode="6" horiz-adv-x="1057" d="M201 504.5q0 158.5 83 294.5t224 207t318 71q68 0 146 -13l-18 -76q-53 8 -99 8q-246 0 -373 -166q-64 -84 -76 -201q115 56 237 56t212 -37t147.5 -117.5t57.5 -190t-56 -192.5q-111 -167 -340 -167q-141 0 -248 69t-161 182.5t-54 272zM393 452q0 -51 7.5 -103.5 t26.5 -107.5t47 -96q66 -94 183 -94q71 0 122 45q94 82 94 221.5t-70.5 219t-187.5 79.5t-216 -67q-6 -46 -6 -97z" />
<glyph unicode="7" horiz-adv-x="882" d="M187 950v106q168 -18 334.5 -18t359.5 18v-90q-155 -279 -241 -471.5t-188 -494.5h-170l430 950h-525z" />
<glyph unicode="8" horiz-adv-x="998" d="M203 269q0 175 202 259q-178 87 -178 260q0 70 32.5 126.5t86.5 91t118.5 52.5t133.5 18t134.5 -18t119.5 -52.5t87 -91t33 -126.5q0 -175 -177 -260q202 -86 202 -259q0 -74 -36 -132t-95 -91q-119 -69 -266 -69q-145 0 -266 69q-59 33 -95 91t-36 132zM390 266.5 q0 -86.5 62 -148t149.5 -61.5t149 61.5t61.5 148t-61.5 148t-149 61.5t-149.5 -61.5t-62 -148zM392 784.5q0 -85.5 60.5 -146t146.5 -60.5t147 60.5t61 146t-61 146t-146.5 60.5t-146.5 -60.5t-61 -146z" />
<glyph unicode="9" horiz-adv-x="1072" d="M204 715q0 108 56 192q113 169 344 169q140 0 248 -70t163 -184.5t55 -273t-85 -294t-228 -205.5t-321 -70q-56 0 -118 8l16 75q33 -4 76 -4q186 0 316.5 99.5t142.5 278.5q-124 -64 -269 -64q-162 0 -276 87q-120 92 -120 256zM391 745q0 -138 70 -220.5t189 -82.5 t222 75q3 33 3 84t-13.5 119.5t-42.5 136t-83.5 109.5t-126 42t-122.5 -44q-96 -81 -96 -219z" />
<glyph unicode=":" horiz-adv-x="414" d="M146 121.5q0 57.5 39 92t94 34.5t95 -37.5t40 -90.5t-38 -93.5t-95 -40.5t-96 39t-39 96.5zM146 706.5q0 57.5 39 92.5t94 35t95 -38t40 -91.5t-38.5 -94.5t-95 -41t-95.5 40t-39 97.5z" />
<glyph unicode=";" horiz-adv-x="412" d="M146 116q0 56 37.5 91t94.5 35q136 0 136 -175q0 -84 -48.5 -184.5t-126.5 -152.5l-54 49q41 34 74.5 82t33.5 84.5t-29 36.5q-53 0 -85.5 39t-32.5 95zM146 456.5q0 57.5 39 92.5t94 35t95 -38t40 -91.5t-38.5 -95t-95 -41.5t-95.5 40.5t-39 98z" />
<glyph unicode="&#x3c;" horiz-adv-x="940" d="M151 414v105l797 423v-123l-608 -354l608 -352v-123z" />
<glyph unicode="=" horiz-adv-x="878" d="M150 232v120h731v-120h-731zM150 530v120h731v-120h-731z" />
<glyph unicode="&#x3e;" horiz-adv-x="940" d="M151 -10v123l608 352l-608 354v123l797 -423v-105z" />
<glyph unicode="?" horiz-adv-x="890" d="M75 918q0 62 22.5 115t60.5 89t88 62q97 48 196 48t172 -22t135 -62.5t101 -104.5t39 -125t-16.5 -101.5t-43.5 -70t-61.5 -58.5t-71 -52.5t-71 -53t-61.5 -58.5q-60 -64 -60 -155q0 -31 9 -63l-98 -31q-17 49 -17 101.5t26.5 112.5t64.5 107.5t75 93.5q91 111 91 213 t-64.5 173t-148 71t-134 -39.5t-50.5 -109.5q0 -25 30.5 -65t30.5 -73t-35.5 -57.5t-86 -24.5t-86.5 39t-36 101zM375 82q0 55 44 94.5t100.5 39.5t100 -39t43.5 -94.5t-44 -92.5t-100 -37t-100 37t-44 92z" />
<glyph unicode="@" horiz-adv-x="1315" d="M159 598q0 269 164 448q77 84 190.5 132.5t247.5 48.5q239 0 396.5 -149t157.5 -386q0 -148 -75 -278q-37 -62 -99 -101t-123 -39q-112 0 -160 91q-80 -102 -194 -102q-84 0 -149.5 53.5t-97.5 131t-32 159.5t32 159t97.5 130.5t149.5 53.5q111 0 190 -99v90h88v-449 q0 -27 28.5 -57t58.5 -30t54.5 31.5t36.5 79.5q21 88 21 170t-25 164.5t-72.5 148.5t-124.5 104.5t-179 38.5t-192.5 -45.5t-149.5 -121.5q-125 -161 -125 -372q0 -220 126 -371q60 -72 151.5 -114t202.5 -42q161 0 280 83l56 -70q-146 -109 -325 -109q-269 0 -437 173.5 t-168 444.5zM517 608q0 -43 9.5 -87t29.5 -86q43 -94 138 -94q67 0 113.5 56.5t46.5 125.5v169q0 67 -45 122.5t-101 55.5t-92.5 -25.5t-57 -65.5t-31 -84t-10.5 -87z" />
<glyph unicode="A" horiz-adv-x="1164" d="M130 1l415 1211h154q145 -498 347 -934q21 -46 66.5 -141.5t64.5 -135.5h-202l-164 446q-104 7 -219.5 7t-213.5 -7l-146 -446h-102zM411 548h363l-192 492z" />
<glyph unicode="B" horiz-adv-x="975" d="M153 -4q10 365 10 649t-10 571q74 -7 147 -7l289 7q137 0 247 -80q53 -38 85 -98.5t32 -143.5t-60.5 -153t-154.5 -103q109 -27 172.5 -104.5t63.5 -189.5q0 -162 -114.5 -255t-277.5 -93l-278 5q-84 0 -151 -5zM327 75h190q119 0 195 73t76 190.5t-72.5 186t-189.5 68.5 h-199v-518zM327 672q59 -12 119 -12t117 14.5t106 43.5q109 65 109 178.5t-74.5 176.5t-177.5 63h-199v-464z" />
<glyph unicode="C" horiz-adv-x="1060" d="M159 589q0 199 82 361q90 176 248 244q86 36 191.5 36t198.5 -56.5t160 -154.5l-36 -80q-51 76 -124 119t-153 43t-144 -31.5t-107 -83.5t-73 -120q-56 -132 -56 -283q0 -235 123 -377q90 -105 239 -105q190 0 288 187l57 -104q-150 -205 -378 -205q-294 0 -434 260 q-82 152 -82 350z" />
<glyph unicode="D" horiz-adv-x="1065" d="M153 -5q21 378 21 635.5t-21 584.5q93 -11 166 -11l237 11q287 0 426 -263q81 -153 81 -347q0 -304 -181 -483q-128 -127 -325 -127l-233 10q-71 0 -171 -10zM327 75h173q224 0 324 243q55 133 55 287q0 73 -13 145t-42.5 142t-71.5 124q-95 119 -252 119h-173v-1060z " />
<glyph unicode="E" horiz-adv-x="876" d="M153 -4q17 332 17 628.5t-17 586.5q157 -15 329 -15t392 15v-80h-547v-418q90 -7 193 -7t243 10v-95h-436v-546h561v-79q-236 9 -395 9t-340 -9z" />
<glyph unicode="F" horiz-adv-x="861" d="M153 -4q16 404 16 669.5t-16 546.5q157 -15 329 -15t392 15v-80h-547v-418q90 -7 193 -7t243 10v-95h-436v-626h-174z" />
<glyph unicode="G" horiz-adv-x="1051" d="M153 582.5q0 185.5 64 328.5t194.5 231.5t306.5 88.5q102 0 192.5 -44t148.5 -128l-36 -80q-86 125 -240 125q-106 0 -192 -42.5t-139 -115.5q-111 -149 -111 -362q0 -196 98 -349q48 -75 127 -121t164.5 -46t145.5 23v455h-251v80q100 -13 198 -13t228 13 q-12 -116 -12 -243.5t11 -283.5q-139 -120 -385 -120q-286 0 -429 265q-83 153 -83 338.5z" />
<glyph unicode="H" horiz-adv-x="1034" d="M153 1q21 352 21 643t-21 564h174v-546q109 -12 239.5 -12t293.5 12v546h174q-21 -351 -21 -642t21 -565h-174v572h-533v-572h-174z" />
<glyph unicode="I" horiz-adv-x="335" d="M163 0q20 362 20 646t-20 564h166q-17 -381 -17 -661.5t17 -548.5h-166z" />
<glyph unicode="J" horiz-adv-x="649" d="M59 140l54 40q24 -57 72 -88.5t120 -31.5t121 63t49 153v936q53 -5 85 -5t89 5q-23 -164 -23 -331l22 -568q0 -141 -90.5 -238t-228.5 -97q-179 0 -270 162z" />
<glyph unicode="K" horiz-adv-x="1025" d="M153 1q19 323 19 621.5t-19 587.5h174v-623q391 403 574 623h117l-392 -438q165 -411 430 -771h-208l-349 631l-172 -188v-443h-174z" />
<glyph unicode="L" horiz-adv-x="854" d="M153 0q18 320 18 625.5t-18 582.5h174v-1129h524v-79q-197 8 -354.5 8t-343.5 -8z" />
<glyph unicode="M" horiz-adv-x="1258" d="M153 0l10 1210h242q20 -78 42 -174q67 -291 141 -478q27 -69 65.5 -159t68.5 -166l329 977h206q-17 -317 -17 -603t17 -607h-175l2 1066l-327 -1066h-141l-350 1067v-1067h-113z" />
<glyph unicode="N" horiz-adv-x="1125" d="M173 0l10 1210h164q237 -526 616 -979v979h101l10 -1210h-184l-604 987v-987h-113z" />
<glyph unicode="O" horiz-adv-x="1221" d="M149 600q0 203 89 361q96 171 259 235q88 34 202.5 34t218.5 -52.5t169.5 -141.5t101 -201t35.5 -222.5t-22 -201.5t-66.5 -169.5t-107.5 -137.5q-135 -125 -341 -125q-299 0 -449 263q-89 155 -89 358zM337 637.5q0 -91.5 11.5 -164t39 -147.5t67 -133.5t101 -96 t137 -37.5t136.5 34t99 88t63.5 125t35.5 140.5t10 138.5t-11.5 142.5t-39 150.5t-67 137t-101 98.5t-131 38.5t-123 -24.5t-90.5 -66.5t-64 -95t-42 -115q-31 -122 -31 -213.5z" />
<glyph unicode="P" horiz-adv-x="973" d="M153 0q17 328 17 628t-17 586q79 -9 150 -9l275 9q154 0 270 -84q57 -40 91 -105t34 -146.5t-37 -147t-98 -104.5q-122 -79 -281 -79h-230v-548h-174zM327 626h181q119 0 199.5 67.5t80.5 183t-77.5 186.5t-192.5 71h-191v-508z" />
<glyph unicode="Q" horiz-adv-x="1221" d="M149 609q0 249 137 431q66 87 170 138.5t219 51.5t203 -33.5t150.5 -92.5t107.5 -138q88 -153 88 -334q0 -376 -231 -553q81 -107 203 -107q13 0 27 1l-31 -148q-120 9 -206 105q-36 39 -75 98q-102 -48 -214 -48t-200 34.5t-151 94.5t-108 139q-89 158 -89 361zM337 624 q0 -109 25 -206.5t54 -154.5t67 -103q83 -100 209 -100q92 0 164 51q-96 142 -180 172q-39 14 -85 14l35 142q111 -20 182 -93q58 -61 119 -163q110 151 110 411q0 109 -25 205t-54 153t-67 102q-83 98 -209 98q-77 0 -138.5 -35t-99.5 -89t-63 -126q-44 -127 -44 -278z" />
<glyph unicode="R" horiz-adv-x="1021" d="M153 0q16 300 16 605t-16 608q62 -7 147 -7l287 7q154 0 269 -75q124 -82 124 -244q0 -131 -87 -223.5t-217 -100.5q16 -28 68.5 -127t85.5 -153.5t103.5 -152t96.5 -137.5h-199l-309 557h-195v-557h-174zM327 637h191q118 0 199.5 67.5t81.5 181.5t-78 180.5t-192 66.5 h-202v-496z" />
<glyph unicode="S" horiz-adv-x="969" d="M134 177l61 91q56 -97 144 -150t196.5 -53t184 67t75.5 172q0 103 -66 154q-63 47 -168 69.5t-151.5 36.5t-97.5 40t-84 59q-74 76 -74 200q0 170 118.5 269t292.5 99q223 0 375 -167l-59 -71q-115 152 -310 152q-107 0 -183.5 -55.5t-76.5 -158.5q0 -60 45.5 -98 t92.5 -55t70.5 -24.5t59.5 -17t82.5 -23.5t101 -39.5t103.5 -66.5q97 -81 97 -248.5t-118 -273t-294 -105.5q-263 0 -417 197z" />
<glyph unicode="T" horiz-adv-x="1037" d="M130 1114v100q217 -17 450 -17t453 17v-100h-365q-9 -288 -9 -564t9 -550h-174q16 278 16 562t-16 552h-364z" />
<glyph unicode="U" horiz-adv-x="1043" d="M162 385l11 545q0 142 -10 279h174v-821q0 -136 84.5 -221t218.5 -85t218.5 85.5t84.5 220.5v821h101v-786q0 -199 -122 -322t-319 -123q-183 0 -309 108q-132 111 -132 299z" />
<glyph unicode="V" horiz-adv-x="1111" d="M124 1210h201q112 -516 352 -1037l350 1037h102l-394 -1210h-202z" />
<glyph unicode="W" horiz-adv-x="1619" d="M124 1210h202q37 -302 79 -484t175 -548l251 1032h202q36 -302 78 -484t175 -548l252 1032h102l-296 -1210h-203l-258 1004l-245 -1004h-204z" />
<glyph unicode="X" horiz-adv-x="1045" d="M140 0l385 583l-375 626h207q141 -292 254 -495l334 495h122l-399 -594q141 -234 350 -521l68 -94h-218l-286 485l-320 -485h-122z" />
<glyph unicode="Y" horiz-adv-x="957" d="M116 1209h204q92 -235 177 -375q25 -42 60 -95.5t50 -78.5l259 549h111l-300 -712q-12 -29 -12 -138t20 -359h-184v495z" />
<glyph unicode="Z" horiz-adv-x="951" d="M136 0v67l617 1047h-595v100q201 -9 394 -9t399 9v-66l-613 -1049h613v-99q-193 7 -406 7t-409 -7z" />
<glyph unicode="[" horiz-adv-x="438" d="M152 -223q16 352 16 722.5t-16 710.5h352v-78h-180v-1277h180v-78h-352z" />
<glyph unicode="\" horiz-adv-x="980" d="M141 1225h109l736 -1446h-109z" />
<glyph unicode="]" horiz-adv-x="465" d="M112 -147h180v1277h-180v78h352q-17 -362 -17 -710.5t17 -722.5h-352v78z" />
<glyph unicode="^" horiz-adv-x="905" d="M140 622l333 603h110l335 -603h-126l-264 473l-265 -473h-123z" />
<glyph unicode="_" horiz-adv-x="931" d="M150 -256h791v-117h-791v117z" />
<glyph unicode="`" horiz-adv-x="481" d="M126 1236h208l166 -305h-139z" />
<glyph unicode="a" d="M153 243q0 134 99 196q87 55 222 75q156 24 229 48q-2 111 -58.5 185t-147.5 74t-158 -41.5t-100 -109.5l-57 60q59 81 149 125.5t192 44.5q156 0 256.5 -97.5t100.5 -253.5l-9 -255q0 -128 28 -301h-158l-4 134q-44 -73 -125 -111.5t-188 -38.5t-189 72.5t-82 193.5z M323 256.5q0 -83.5 42.5 -130.5t129.5 -47t151.5 75t64.5 179q0 24 -5 147q-44 -17 -121.5 -31t-120.5 -29t-72 -34q-69 -46 -69 -129.5z" />
<glyph unicode="b" horiz-adv-x="952" d="M152 0q20 391 20 619.5t-20 588.5h170v-448q48 62 115 99.5t150 37.5t156 -40t118 -106q92 -135 92 -314q0 -228 -133 -363q-95 -96 -246.5 -96t-252.5 136l-9 -114h-160zM312 307q0 -88 64 -154.5t140.5 -66.5t128.5 35t81 91.5t44 119t15 124t-12.5 117.5t-38.5 106 t-73 80.5t-108 30.5q-163 0 -214 -172q-27 -87 -27 -311z" />
<glyph unicode="c" horiz-adv-x="811" d="M158 433q0 229 134 367q95 99 247 99t257 -154l-27 -76q-78 119 -202 119q-63 0 -111.5 -34.5t-75.5 -89.5q-55 -108 -55 -235q0 -123 51 -227q26 -53 72.5 -86t107.5 -33q136 0 208 138l42 -94q-110 -149 -274 -149q-91 0 -164 39t-118 104q-92 133 -92 312z" />
<glyph unicode="d" horiz-adv-x="963" d="M157 436q0 178 93 316q46 68 119.5 108.5t156.5 40.5q158 0 262 -139v447h170q-21 -380 -21 -606.5t21 -600.5h-150l-9 115q-50 -63 -120 -100t-153.5 -37t-157 39t-118.5 104q-93 134 -93 313zM325 452q0 -123 55 -238q28 -57 76.5 -93t109 -36t106 23t71.5 62.5t39 89 t13 111.5t-13 227q-6 82 -72.5 137t-139.5 55t-120 -31t-74 -82q-51 -99 -51 -225z" />
<glyph unicode="e" horiz-adv-x="988" d="M151 440q0 201 123.5 330.5t311.5 129.5t292 -118q102 -116 102 -299v-7v-63h-652v-2q0 -152 75 -243t223 -91q85 0 162.5 42.5t128.5 117.5l43 -89q-64 -79 -156.5 -122t-193.5 -43q-206 0 -332.5 128t-126.5 329zM336 501h467v11q0 132 -71 213q-54 62 -156.5 62 t-169 -85t-70.5 -201z" />
<glyph unicode="f" horiz-adv-x="589" d="M100 734v85h111l-1 123q0 118 69 203.5t195 85.5t194 -116l-28 -90q-32 102 -144 102q-90 0 -118 -115q-14 -59 -14 -193h184v-85h-183q0 -393 15 -733h-170q10 139 10 275t-7 458h-113z" />
<glyph unicode="g" horiz-adv-x="965" d="M157 442q0 113 44 216.5t132.5 172.5t182.5 69q181 0 273 -130l9 107h162q-15 -158 -15 -339l15 -586q0 -80 -36.5 -146t-95.5 -106q-123 -84 -279 -84q-91 0 -172.5 34.5t-134.5 103.5l46 116q38 -71 101 -110t136 -39q119 0 190.5 77.5t70.5 197.5l-1 136 q-48 -60 -115 -95t-146 -35t-151 38.5t-118 101.5q-98 133 -98 300zM330 443q0 -123 56 -224q27 -50 75 -80.5t109 -30.5q220 0 220 303q0 47 -5 184q-4 88 -69 141.5t-139 53.5t-121 -33t-74 -86q-52 -105 -52 -228z" />
<glyph unicode="h" horiz-adv-x="906" d="M153 1q16 301 16 603.5t-16 602.5h168v-446q103 135 252.5 135t240.5 -101.5t91 -245.5l-6 -364q0 -87 6 -184h-168v480q0 109 -27 180q-48 131 -158 131q-82 0 -156.5 -65.5t-74.5 -146.5v-579h-168z" />
<glyph unicode="i" horiz-adv-x="369" d="M157 1088.5q0 44.5 30.5 76.5t73.5 32t73.5 -32t30.5 -76.5t-30.5 -77t-73.5 -32.5t-73.5 32.5t-30.5 77zM181 0q24 251 24 464t-24 409h163q-12 -273 -12 -481t12 -392h-163z" />
<glyph unicode="j" horiz-adv-x="514" d="M33 -268l28 90q30 -102 143 -102q62 0 91 49q41 70 41 222q0 500 -16 887h169q-10 -159 -10 -351l10 -622q0 -119 -68.5 -204t-194 -85t-193.5 116zM298 1091.5q0 44.5 31 76.5t75 32t75.5 -32t31.5 -76.5t-32 -77t-75 -32.5t-74.5 32.5t-31.5 77z" />
<glyph unicode="k" horiz-adv-x="860" d="M163 0q17 326 17 625t-17 584h168q-11 -344 -11 -636v-76l383 376h114l-329 -311q20 -32 50 -84q97 -165 161.5 -248t112.5 -141t73 -89h-185l-315 451l-64 -63q2 -203 10 -388h-168z" />
<glyph unicode="l" horiz-adv-x="373" d="M153 1209h161q-17 -399 -17 -1051q0 -35 13 -35l33 2v-125h-138q-25 0 -37 21t-12 47l13 538q0 272 -16 603z" />
<glyph unicode="m" horiz-adv-x="1334" d="M153 -1q17 229 17 440t-17 441h150l18 -131q41 65 104 108.5t138 43.5t143 -51t101 -129q42 77 109 128.5t143.5 51.5t131 -27.5t85.5 -77.5q59 -96 59 -239l-10 -366q0 -96 10 -192h-171l3 462q0 142 -16.5 191.5t-32.5 79.5q-33 61 -107 61t-128 -75.5t-54 -155.5v-563 h-168q9 156 9 300t-0.5 170t-4 68t-10 74t-18.5 68t-29 59q-39 55 -108 55t-123 -76t-54 -155v-563h-170z" />
<glyph unicode="n" horiz-adv-x="908" d="M163 0q17 230 17 439t-17 439h147l19 -129q48 69 123 110.5t157 41.5q128 0 214 -85t86 -215l-13 -384q0 -93 13 -217h-168v519q0 193 -91 255q-37 25 -90 25q-96 0 -162.5 -74t-66.5 -173v-552h-168z" />
<glyph unicode="o" horiz-adv-x="994" d="M152 444q0 191 116.5 323.5t303.5 132.5t304.5 -132.5t117.5 -323.5q0 -125 -51 -231t-148.5 -171.5t-222.5 -65.5t-222.5 65.5t-147.5 171.5t-50 231zM328 469.5q0 -89.5 12 -152.5t38 -124.5t75.5 -99t111 -37.5t106 25.5t71.5 66t45 94t24.5 105t6.5 110.5t-12 119.5 t-38.5 117.5t-76.5 91.5t-111.5 34.5t-105.5 -23.5t-71 -60.5t-45 -88q-30 -89 -30 -178.5z" />
<glyph unicode="p" horiz-adv-x="953" d="M153 -368q20 376 20 616t-20 633h160l9 -117q47 63 114.5 99.5t141.5 36.5t136.5 -26t106 -70t74 -103t45 -125t14.5 -135t-14.5 -134.5t-45 -124.5t-74.5 -104q-94 -96 -240 -96q-75 0 -142.5 36.5t-114.5 99.5v-486h-170zM315 365q0 -121 56 -199t171 -78q62 0 111 35 t76.5 90.5t41.5 116.5t14 120.5t-13 117t-39 109.5t-73.5 84t-121 32t-138.5 -56.5t-72 -140.5q-13 -167 -13 -231z" />
<glyph unicode="q" horiz-adv-x="953" d="M153 412.5q0 115.5 24 196t69 146.5t118 105.5t156 39.5q163 0 266 -136l9 117h159q-20 -393 -20 -633t20 -616h-170v486q-46 -62 -114 -99t-142 -37t-136 26t-105.5 70.5t-74.5 103.5q-59 115 -59 230.5zM322 440q0 -126 54 -232q28 -54 77 -87t108.5 -33t101 19.5 t65.5 50.5t38.5 77t19 89t4.5 120.5t-6.5 154.5t-70.5 135.5t-138.5 58.5t-123 -33.5t-75.5 -87.5q-54 -108 -54 -232z" />
<glyph unicode="r" horiz-adv-x="679" d="M153 0q17 227 17 436.5t-17 441.5h149l18 -148q49 79 125.5 125t154 46t140.5 -27l-62 -147q-68 45 -144.5 45t-140 -70t-71.5 -159q-3 -36 -3 -75q1 -16 1 -30q2 -56 1 -72l1 -366h-169z" />
<glyph unicode="s" horiz-adv-x="889" d="M139 125l65 81q57 -67 143.5 -102.5t173.5 -35.5t150.5 37.5t63.5 115.5q0 43 -23 77q-42 59 -182 78q-155 20 -203 40.5t-78 39t-48 40.5q-42 53 -42 118.5t20.5 113t54.5 79t80 53.5q87 40 197 40q214 0 359 -122l-63 -76q-55 52 -136.5 79.5t-146.5 27.5t-107 -11.5 t-73.5 -45t-31.5 -92.5q0 -83 158 -107q130 -22 185.5 -41t110.5 -52t87.5 -86.5t32.5 -123.5t-32.5 -125t-86.5 -85q-107 -61 -229 -61q-263 0 -399 146z" />
<glyph unicode="t" horiz-adv-x="546" d="M115 786v95h83v25q0 98 -10 246h168q-7 -159 -9 -271h156v-95h-158q-4 -211 -4 -360.5t0.5 -168t3.5 -48t10 -49.5t18 -40q22 -40 69.5 -40t74.5 24.5t42 80.5l26 -103q-29 -56 -68.5 -80.5t-100.5 -24.5q-108 0 -168 73t-60 185l9 307v244h-82z" />
<glyph unicode="u" d="M148 879h173v-620q0 -79 40 -127.5t125.5 -48.5t165 68t79.5 161v567h168q-17 -226 -17 -439.5t17 -439.5h-158l-9 135q-48 -72 -127 -114t-181.5 -42t-187 71.5t-84.5 188.5l13 418q0 65 -17 222z" />
<glyph unicode="v" horiz-adv-x="872" d="M85 879h176q85 -365 267 -719l291 719h114l-360 -879h-147z" />
<glyph unicode="w" horiz-adv-x="1275" d="M122 879h176q38 -370 167 -714l192 714h5q45 -4 73 -5l96 6q38 -368 168 -715l192 714h114l-261 -879h-148l-185 670l-200 -670h-148z" />
<glyph unicode="x" horiz-adv-x="827" d="M133 0l280 421l-237 458h174q68 -205 140 -344l231 344h114l-295 -439q125 -220 310 -440h-179l-206 330l-218 -330h-114z" />
<glyph unicode="y" horiz-adv-x="878" d="M53 -267l15 87l29 1q-1 -42 27 -66.5t65 -24.5t66 17.5t44 34.5q64 73 82.5 112.5t29 72.5t11.5 36l-353 876h176q82 -346 207 -596q17 -35 60 -117l291 713h114l-360 -874q-23 -50 -37 -86t-38 -83.5t-63 -102.5t-91.5 -86t-112.5 -31t-105 28.5t-57 88.5z" />
<glyph unicode="z" horiz-adv-x="932" d="M120 2v93l590 685h-563v99q200 -18 392.5 -18t396.5 18v-96l-598 -684h611v-97q-218 17 -414 17t-415 -17z" />
<glyph unicode="{" horiz-adv-x="528" d="M138 439v107q91 0 104 22q17 27 17 80v366q0 200 188 200h126v-88q-84 0 -109 -12q-43 -20 -43 -100v-350q0 -122 -83 -174q83 -52 83 -201v-327q0 -81 59 -96q27 -6 93 -6v-87h-133q-91 1 -136 53.5t-45 145.5l1 369q0 71 -31 86q-25 12 -91 12z" />
<glyph unicode="|" horiz-adv-x="259" d="M144 -217q18 360 18 721.5t-18 719.5h118v-1441h-118z" />
<glyph unicode="}" horiz-adv-x="528" d="M138 -140q81 0 106 11q46 19 46 91v327q0 149 83 201q-83 52 -83 174v350q0 91 -56 104q-31 8 -63 8h-33v88h126q188 0 188 -200v-366q0 -84 41 -95q25 -7 80 -7v-107q-66 0 -88 -10.5t-28 -31t-6 -56.5l1 -369q0 -93 -45 -145.5t-136 -53.5h-133v87z" />
<glyph unicode="~" horiz-adv-x="1220" d="M156 530q4 119 52 202q55 93 179 93q122 0 285 -72t264.5 -72t151 48.5t65.5 131.5l71 -23q-4 -119 -52 -202q-55 -93 -179 -93q-120 0 -285 71.5t-266 71.5t-150 -47.5t-65 -131.5z" />
<glyph unicode="&#xa1;" horiz-adv-x="384" d="M126 1073q0 58 38.5 98.5t95.5 40.5t95.5 -42t38.5 -95.5t-40 -91t-95 -37.5t-94 34.5t-39 92.5zM148 114v15l69 727h76l71 -719q4 -66 -26.5 -107t-80 -41t-80.5 37.5t-29 87.5z" />
<glyph unicode="&#xa2;" horiz-adv-x="936" d="M111 454.5q0 130.5 54 237t155.5 170t230.5 63.5q33 0 78 -7l94 284h108l-105 -313q99 -44 169 -133l-107 -68q-32 79 -90 117l-238 -714q47 -23 117 -23q183 0 286 168l80 -57q-69 -94 -171.5 -144t-220.5 -50q-59 0 -121 16l-74 -223h-109l88 261q-110 62 -167 173.5 t-57 242zM294 459q0 -198 80 -301l229 683q-21 3 -62 3t-88.5 -24t-76.5 -62t-48 -90q-34 -92 -34 -209z" />
<glyph unicode="&#xa3;" horiz-adv-x="829" d="M144 7v76q119 36 184 126t65 216q0 75 -36 147l-170 -1v99h104q-55 89 -55 182q0 168 105 274t273 106q94 0 188 -43l-42 -87q-48 33 -129 33t-142 -50.5t-90.5 -123t-29.5 -146.5t36 -145h262v-99l-184 -1q44 -78 44 -165.5t-25.5 -151t-92.5 -122.5h420v-124h-685z" />
<glyph unicode="&#xa4;" horiz-adv-x="776" d="M101 311l98 97q-83 86 -83 204t83 204l-98 97l91 88l114 -113q57 23 118 23t115 -24l114 114l91 -88l-99 -97q84 -87 84 -203.5t-83 -204.5l98 -96l-91 -89l-114 114q-61 -23 -118.5 -23t-114.5 23l-114 -114zM264 612q0 -57 13 -105t50.5 -85t88.5 -37t83 21t49 55.5 t25 72t8 78.5t-8 78.5t-25 71.5q-38 77 -125 77q-58 0 -95.5 -37t-50.5 -85t-13 -105z" />
<glyph unicode="&#xa5;" horiz-adv-x="957" d="M116 1209h204q95 -242 176 -375q25 -40 61.5 -96t49.5 -77l259 548h111l-224 -531h158v-104h-202l-32 -77q-3 -7 -7 -59h241v-104h-245q-1 -20 -1 -52t20 -282h-184v334h-255v104h255v57l-43 79h-212v104h156z" />
<glyph unicode="&#xa6;" horiz-adv-x="224" d="M103 277h119v-651h-119v651zM103 545v653h119v-653h-119z" />
<glyph unicode="&#xa7;" horiz-adv-x="865" d="M78 -208l63 97q106 -183 287 -183q87 0 155 55t68 140q0 98 -87 138q-82 38 -162.5 55.5t-130 39.5t-88.5 52q-87 65 -87 208q0 93 44.5 167.5t126.5 116.5q-100 80 -100 222.5t102.5 230.5t253.5 88q193 0 327 -152l-63 -78q-100 137 -259 137q-87 0 -152.5 -45 t-65.5 -128q0 -75 70 -115q47 -28 127.5 -51.5t126.5 -39t88 -39.5t74 -56.5t51 -84t19 -128.5t-40 -153t-114 -122q82 -75 82 -219t-100.5 -238t-253.5 -94q-225 0 -362 179zM240 462q0 -52 27 -85.5t73 -54.5t91 -36t99.5 -30t79.5 -26q50 25 81.5 70t31.5 93.5t-17.5 81 t-43.5 51t-64.5 33t-73.5 21.5q-105 21 -144 37q-63 -16 -101.5 -59.5t-38.5 -95.5z" />
<glyph unicode="&#xa8;" horiz-adv-x="791" d="M100 1111.5q0 56.5 39.5 90t94 33.5t95 -36t40.5 -88.5t-39.5 -92.5t-95 -40t-95 38.5t-39.5 95zM521 1111.5q0 56.5 40 90t94 33.5t94.5 -36t40.5 -88.5t-39 -92.5t-95 -40t-95.5 38.5t-39.5 95z" />
<glyph unicode="&#xa9;" horiz-adv-x="1333" d="M112 578.5q0 144.5 48 257.5t129.5 195.5t194.5 131.5t258 49t285 -82.5t221 -223.5t81 -306.5t-81.5 -306t-221.5 -222.5t-305.5 -82t-305.5 82t-221.5 222.5t-81.5 285zM184 598q0 -146 71.5 -271t195.5 -198.5t270 -73.5t270 73.5t195.5 198.5t71.5 271t-71.5 271 t-195.5 198t-270 73t-270 -73t-195.5 -198t-71.5 -271zM401 604.5q0 158.5 92.5 271.5t251.5 113t268 -147l-99 -69q-52 131 -166 131q-55 0 -94.5 -28.5t-59.5 -75.5q-36 -88 -36 -168.5t9 -129.5t30 -96q46 -101 170 -101t204 140l77 -59q-115 -167 -307 -167 q-155 0 -247.5 113.5t-92.5 272z" />
<glyph unicode="&#xaa;" horiz-adv-x="553" d="M157 899q0 98 111 132q28 9 88.5 19.5t74.5 14.5q-3 48 -27.5 77t-68.5 29q-83 0 -123 -83l-44 47q71 96 186 96q80 0 133 -49t53 -130l-5 -128q0 -60 16 -161h-100l-2 49q-51 -57 -128 -57t-120.5 38.5t-43.5 105.5zM262 900q0 -33 18.5 -53t57 -20t68 34t29.5 78t-1 64 q-8 -2 -23.5 -5.5t-41 -8.5t-43.5 -12q-64 -20 -64 -77z" />
<glyph unicode="&#xab;" horiz-adv-x="723" d="M93 449q155 209 266 453h116l-207 -453l207 -451h-116q-109 240 -266 451zM343 449q155 209 266 453h116l-207 -453l207 -451h-116q-109 240 -266 451z" />
<glyph unicode="&#xac;" horiz-adv-x="1010" d="M101 700v110h914v-477h-146v367h-768z" />
<glyph unicode="&#xad;" horiz-adv-x="687" d="M98 383v117h595v-117h-595z" />
<glyph unicode="&#xae;" horiz-adv-x="1333" d="M112 599q0 165 81.5 306.5t221.5 224t305.5 82.5t306 -83t221.5 -224t81 -306t-81.5 -305.5t-221.5 -222.5t-305 -82t-305.5 82t-222 222.5t-81.5 305.5zM184 598q0 -146 71.5 -271t195.5 -198.5t270 -73.5t270 73.5t195.5 198.5t71.5 271t-71.5 270.5t-195.5 198 t-270 73.5t-270 -73t-195.5 -198t-71.5 -271zM489 234q20 185 20 361t-20 361h238q136 0 214 -84q42 -45 42 -112t-45 -121t-117 -67q78 -199 198 -338h-141l-184 326h-100v-326h-105zM594 624h65q143 0 177 64q16 28 16 83t-40.5 87.5t-108.5 32.5h-109v-267z" />
<glyph unicode="&#xaf;" horiz-adv-x="1347" />
<glyph unicode="&#xb0;" horiz-adv-x="507" d="M95 1003q0 98 55.5 163.5t149.5 65.5t149.5 -66.5t55.5 -163t-54 -162t-150.5 -65.5t-151 65t-54.5 163zM213 1003.5q0 -171.5 87 -171.5t87 171.5t-87 171.5t-87 -171.5z" />
<glyph unicode="&#xb1;" horiz-adv-x="888" d="M103 461v116h301v314h187v-314h298v-116h-298v-297h-187v297h-301zM123 9v117h745v-117h-745z" />
<glyph unicode="&#xb2;" horiz-adv-x="543" d="M151 672v26q0 121 83 173q24 15 57 30q60 27 79 40q55 38 55 104q0 103 -110 103q-42 0 -73.5 -20t-65.5 -67l-25 55q79 112 188 112q84 0 144 -50t60 -138.5t-68 -131.5q-20 -12 -75 -35t-76 -39q-41 -31 -43 -92h258v-70q-105 6 -202.5 6t-185.5 -6z" />
<glyph unicode="&#xb3;" horiz-adv-x="553" d="M139 736l31 60q53 -72 135 -72q52 0 86.5 28t34.5 74t-27 73.5t-70 27.5h-84v67h63q47 0 82 19.5t35 61t-37 67t-84 25.5q-71 0 -121 -76l-19 56q66 81 171 81q106 0 173 -68q36 -36 36 -93.5t-75 -103.5q81 -46 81 -129.5t-67.5 -129t-169 -45.5t-174.5 77z" />
<glyph unicode="&#xb4;" horiz-adv-x="451" d="M88 927l166 305h208l-235 -305h-139z" />
<glyph unicode="&#xb5;" horiz-adv-x="904" d="M151 -366q31 327 31 622.5t-31 622.5h176v-543q0 -134 83 -210q45 -40 101.5 -40t98 27t66.5 70q49 87 49 189v495h176q-10 -237 -10 -425.5t10 -423.5h-176v97q-88 -137 -258 -137q-76 0 -140 34v-378h-176z" />
<glyph unicode="&#xb6;" horiz-adv-x="1020" d="M152 869q0 105 57 182q110 149 334 149l338 -6q95 0 162 5v-113h-138q-25 -353 -25 -723.5t25 -729.5h-105v1453h-64v-1453h-129q9 231 9 458t-9 451q-232 0 -357 100q-98 80 -98 227z" />
<glyph unicode="&#xb7;" horiz-adv-x="363" d="M95 476q0 57 39.5 90.5t93.5 33.5t94.5 -36t40.5 -89t-38.5 -93t-95 -40t-95.5 38.5t-39 95.5z" />
<glyph unicode="&#xb8;" horiz-adv-x="620" d="M176 -311l81 40q38 -49 95 -49t102.5 33t45.5 77q0 38 -62.5 38t-123.5 -39l-35 46l116 189h92l-67 -108q26 4 85 4t110 -30.5t51 -86t-29 -95t-75 -61.5q-91 -44 -188 -44q-149 0 -198 86z" />
<glyph unicode="&#xb9;" horiz-adv-x="317" d="M128 1051v77q47 28 95 79h94q-14 -156 -14 -275t14 -273h-117v430z" />
<glyph unicode="&#xba;" horiz-adv-x="595" d="M156 991.5q0 99.5 61 169t159 69.5t159.5 -69.5t61.5 -169.5t-61 -172t-159.5 -72t-159.5 72.5t-61 172zM264 993q0 -101 46 -155q26 -30 75 -30t76.5 56.5t27.5 115.5t-10 96.5t-36 65.5t-66.5 28t-66.5 -28q-46 -48 -46 -149z" />
<glyph unicode="&#xbb;" horiz-adv-x="747" d="M123 -2l207 451l-207 453h116q111 -244 266 -453q-157 -211 -266 -451h-116zM373 -2l207 451l-207 453h116q111 -244 266 -453q-157 -211 -266 -451h-116z" />
<glyph unicode="&#xbc;" horiz-adv-x="816" d="M122 20l508 888l69 -33l-511 -889zM128 901v77q47 28 95 79h94q-14 -156 -14 -275t14 -273h-117v430zM347 115v67q19 22 74.5 81t82.5 91.5t70 97t67 95.5h99q-9 -127 -9 -276v-73h78v-83h-75q1 -41 6 -115h-117v115h-276zM447 198h176v219z" />
<glyph unicode="&#xbd;" horiz-adv-x="883" d="M122 20l508 888l69 -33l-511 -889zM128 901v77q47 28 95 79h94q-14 -156 -14 -275t14 -273h-117v430zM491 -7v25q0 121 83 173q24 15 57 30q60 27 79 40q55 38 55 104q0 103 -110 103q-42 0 -73.5 -20t-65.5 -67l-25 55q79 112 188 112q84 0 144 -50t60 -139t-68 -131 q-20 -12 -75 -35t-76 -39q-41 -31 -43 -92h258v-69q-105 6 -202.5 6t-185.5 -6z" />
<glyph unicode="&#xbe;" horiz-adv-x="960" d="M159 586l31 60q53 -72 135 -72q52 0 86.5 28t34.5 74t-27 73.5t-70 27.5h-84v67h63q47 0 82 19.5t35 61t-37 67t-84 25.5q-71 0 -121 -76l-19 56q66 81 171 81q106 0 173 -68q36 -36 36 -93.5t-75 -103.5q81 -46 81 -129.5t-67.5 -129t-169 -45.5t-174.5 77zM272 20 l508 888l69 -33l-511 -889zM497 115v67q19 22 74.5 81t82.5 91.5t70 97t67 95.5h99q-9 -127 -9 -276v-73h78v-83h-75q1 -41 6 -115h-117v115h-276zM597 198h176v219z" />
<glyph unicode="&#xbf;" horiz-adv-x="914" d="M100 265q0 61 16.5 101.5t43.5 70t61.5 58.5t71 52.5t71 53t61.5 58.5t43.5 69t16.5 79.5t-9 69.5l98 31q17 -49 17 -90q0 -117 -91 -232q-37 -47 -75 -93q-91 -110 -91 -212.5t64.5 -173.5t148 -71t134 39.5t50.5 109.5q0 26 -30.5 65.5t-30.5 72.5t35.5 57.5t86.5 24.5 t86.5 -38.5t35.5 -99.5q0 -158 -120.5 -236t-270.5 -78t-283 83q-62 40 -101 104t-39 125zM326 1101.5q0 55.5 44 93t100 37.5t100 -37.5t44 -93t-44 -95t-100.5 -39.5t-100 39.5t-43.5 95z" />
<glyph unicode="&#xc0;" horiz-adv-x="1164" d="M130 1l415 1211h154q145 -498 347 -934q21 -46 66.5 -141.5t64.5 -135.5h-202l-164 446q-104 7 -219.5 7t-213.5 -7l-146 -446h-102zM283 1522h191q64 -121 142 -223h-132zM411 548h363l-192 492z" />
<glyph unicode="&#xc1;" horiz-adv-x="1149" d="M130 1l415 1211h154q145 -498 347 -934q21 -46 66.5 -141.5t64.5 -135.5h-202l-164 446q-104 7 -219.5 7t-213.5 -7l-146 -446h-102zM411 548h363l-192 492zM586 1300q83 104 142 223h191l-201 -223h-132z" />
<glyph unicode="&#xc2;" horiz-adv-x="1149" d="M130 1l415 1211h154q145 -498 347 -934q21 -46 66.5 -141.5t64.5 -135.5h-202l-164 446q-104 7 -219.5 7t-213.5 -7l-146 -446h-102zM367 1301q110 118 187 222h129q75 -112 183 -222h-162l-90 125l-93 -125h-154zM411 548h363l-192 492z" />
<glyph unicode="&#xc3;" horiz-adv-x="1152" d="M130 1l415 1211h154q145 -498 347 -934q21 -46 66.5 -141.5t64.5 -135.5h-202l-164 446q-104 7 -219.5 7t-213.5 -7l-146 -446h-102zM360 1307q4 131 74 174q28 17 72 17t135 -38.5t140 -38.5t69.5 27.5t28.5 79.5l49 -22q-12 -201 -141 -201q-51 0 -141 39.5t-140 39.5 t-70 -23.5t-28 -75.5zM411 548h363l-192 492z" />
<glyph unicode="&#xc4;" horiz-adv-x="1149" d="M130 1l415 1211h154q145 -498 347 -934q21 -46 66.5 -141.5t64.5 -135.5h-202l-164 446q-104 7 -219.5 7t-213.5 -7l-146 -446h-102zM376 1409.5q0 39.5 27 67.5t66 28t66.5 -28t27.5 -67.5t-27.5 -67t-67 -27.5t-66 27.5t-26.5 67zM411 548h363l-192 492zM652 1409.5 q0 39.5 27.5 67.5t66.5 28t66 -28t27 -67.5t-26.5 -67t-66 -27.5t-67 27.5t-27.5 67z" />
<glyph unicode="&#xc5;" horiz-adv-x="1140" d="M130 1l415 1211h154q145 -498 347 -934q21 -46 66.5 -141.5t64.5 -135.5h-202l-164 446q-104 7 -219.5 7t-213.5 -7l-146 -446h-102zM411 548h363l-192 492zM507 1393.5q0 43.5 31 74.5t74 31t73.5 -31t30.5 -74t-30.5 -74t-74 -31t-74 30.5t-30.5 74zM552 1394 q0 -24 17.5 -42t42 -18t42 18t17.5 42t-17.5 41.5t-42 17.5t-42 -17.5t-17.5 -41.5z" />
<glyph unicode="&#xc6;" horiz-adv-x="1345" d="M119 1l426 1208q220 -20 399.5 -20t399.5 20v-108h-487v-388q116 -7 180 -7t196 10v-95h-376v-546h487v-79q-214 9 -324 9t-337 -9l16 456q-68 2 -152 2t-169 -7l-146 -446h-113zM411 548h289l1 125l-1 83v345h-80z" />
<glyph unicode="&#xc7;" horiz-adv-x="1060" d="M159 589q0 199 82 361q90 176 248 244q86 36 191.5 36t198.5 -56.5t160 -154.5l-36 -80q-51 76 -124 119t-153 43t-144 -31.5t-107 -83.5t-73 -120q-56 -132 -56 -283q0 -235 123 -377q90 -105 239 -105q190 0 288 187l57 -104q-123 -167 -300 -198l-43 -70q26 4 85 4 t110 -30.5t51 -86t-29 -95t-75 -61.5q-90 -44 -188 -44q-149 0 -198 86l81 40q38 -49 95 -49t102.5 33t45.5 77q0 38 -62.5 38t-123.5 -39l-35 46l88 144q-121 4 -218 56t-157 137q-123 176 -123 417z" />
<glyph unicode="&#xc8;" horiz-adv-x="876" d="M113 1522h191q64 -121 142 -223h-132zM153 -4q17 332 17 628.5t-17 586.5q157 -15 329 -15t392 15v-80h-547v-418q90 -7 193 -7t243 10v-95h-436v-546h561v-79q-236 9 -395 9t-340 -9z" />
<glyph unicode="&#xc9;" horiz-adv-x="876" d="M153 -4q17 332 17 628.5t-17 586.5q157 -15 329 -15t392 15v-80h-547v-418q90 -7 193 -7t243 10v-95h-436v-546h561v-79q-236 9 -395 9t-340 -9zM596 1300q83 104 142 223h191l-201 -223h-132z" />
<glyph unicode="&#xca;" horiz-adv-x="876" d="M153 -4q17 332 17 628.5t-17 586.5q157 -15 329 -15t392 15v-80h-547v-418q90 -7 193 -7t243 10v-95h-436v-546h561v-79q-236 9 -395 9t-340 -9zM287 1301q110 118 187 222h129q75 -112 183 -222h-162l-90 125l-93 -125h-154z" />
<glyph unicode="&#xcb;" horiz-adv-x="876" d="M153 -4q17 332 17 628.5t-17 586.5q157 -15 329 -15t392 15v-80h-547v-418q90 -7 193 -7t243 10v-95h-436v-546h561v-79q-236 9 -395 9t-340 -9zM296 1409.5q0 39.5 27 67.5t66 28t66.5 -28t27.5 -67.5t-27.5 -67t-67 -27.5t-66 27.5t-26.5 67zM572 1409.5 q0 39.5 27.5 67.5t66.5 28t66 -28t27 -67.5t-26.5 -67t-66 -27.5t-67 27.5t-27.5 67z" />
<glyph unicode="&#xcc;" horiz-adv-x="431" d="M53 1522h191q64 -121 142 -223h-132zM263 0q20 362 20 646t-20 564h166q-17 -381 -17 -661.5t17 -548.5h-166z" />
<glyph unicode="&#xcd;" horiz-adv-x="505" d="M163 0q20 362 20 646t-20 564h166q-17 -381 -17 -661.5t17 -548.5h-166zM216 1300q83 104 142 223h191l-201 -223h-132z" />
<glyph unicode="&#xce;" horiz-adv-x="501" d="M77 1301q110 118 187 222h129q75 -112 183 -222h-162l-90 125l-93 -125h-154zM233 0q20 362 20 646t-20 564h166q-17 -381 -17 -661.5t17 -548.5h-166z" />
<glyph unicode="&#xcf;" horiz-adv-x="512" d="M106 1409.5q0 39.5 27 67.5t66 28t66.5 -28t27.5 -67.5t-27.5 -67t-67 -27.5t-66 27.5t-26.5 67zM253 0q20 362 20 646t-20 564h166q-17 -381 -17 -661.5t17 -548.5h-166zM382 1409.5q0 39.5 27.5 67.5t66.5 28t66 -28t27 -67.5t-26.5 -67t-66 -27.5t-67 27.5t-27.5 67z " />
<glyph unicode="&#xd0;" horiz-adv-x="1125" d="M77 570v84h157v21q1 208 -21 540q101 -11 166 -11l237 11q286 0 426 -263q81 -153 81 -347q0 -303 -181 -483q-126 -127 -325 -127l-233 10q-76 0 -171 -10q18 318 21 576zM387 75h173q224 0 325 245q54 131 54 280q0 65 -9.5 125t-28 120t-49.5 111.5t-72 91.5 q-86 87 -220 87h-173v-481h308l3 -81l-311 -2v-496z" />
<glyph unicode="&#xd1;" horiz-adv-x="1125" d="M173 0l10 1210h164q237 -526 616 -979v979h101l10 -1210h-184l-604 987v-987h-113zM400 1307q4 131 74 174q28 17 72.5 17t135 -38.5t139.5 -38.5t69.5 27.5t28.5 79.5l49 -22q-12 -201 -141 -201q-50 0 -140.5 39.5t-140.5 39.5t-70 -23.5t-28 -75.5z" />
<glyph unicode="&#xd2;" horiz-adv-x="1221" d="M149 600q0 203 89 361q96 171 259 235q88 34 202.5 34t218.5 -52.5t169.5 -141.5t101 -201t35.5 -222.5t-22 -201.5t-66.5 -169.5t-107.5 -137.5q-135 -125 -341 -125q-299 0 -449 263q-89 155 -89 358zM243 1522h191q64 -121 142 -223h-132zM337 637.5 q0 -91.5 11.5 -164t39 -147.5t67 -133.5t101 -96t137 -37.5t136.5 34t99 88t63.5 125t35.5 140.5t10 138.5t-11.5 142.5t-39 150.5t-67 137t-101 98.5t-131 38.5t-123 -24.5t-90.5 -66.5t-64 -95t-42 -115q-31 -122 -31 -213.5z" />
<glyph unicode="&#xd3;" horiz-adv-x="1221" d="M149 600q0 203 89 361q96 171 259 235q88 34 202.5 34t218.5 -52.5t169.5 -141.5t101 -201t35.5 -222.5t-22 -201.5t-66.5 -169.5t-107.5 -137.5q-135 -125 -341 -125q-299 0 -449 263q-89 155 -89 358zM337 637.5q0 -91.5 11.5 -164t39 -147.5t67 -133.5t101 -96 t137 -37.5t136.5 34t99 88t63.5 125t35.5 140.5t10 138.5t-11.5 142.5t-39 150.5t-67 137t-101 98.5t-131 38.5t-123 -24.5t-90.5 -66.5t-64 -95t-42 -115q-31 -122 -31 -213.5zM746 1300q83 104 142 223h191l-201 -223h-132z" />
<glyph unicode="&#xd4;" horiz-adv-x="1221" d="M149 600q0 203 89 361q96 171 259 235q88 34 202.5 34t218.5 -52.5t169.5 -141.5t101 -201t35.5 -222.5t-22 -201.5t-66.5 -169.5t-107.5 -137.5q-135 -125 -341 -125q-299 0 -449 263q-89 155 -89 358zM337 637.5q0 -91.5 11.5 -164t39 -147.5t67 -133.5t101 -96 t137 -37.5t136.5 34t99 88t63.5 125t35.5 140.5t10 138.5t-11.5 142.5t-39 150.5t-67 137t-101 98.5t-131 38.5t-123 -24.5t-90.5 -66.5t-64 -95t-42 -115q-31 -122 -31 -213.5zM437 1301q110 118 187 222h129q75 -112 183 -222h-162l-90 125l-93 -125h-154z" />
<glyph unicode="&#xd5;" horiz-adv-x="1221" d="M149 600q0 203 89 361q96 171 259 235q88 34 202.5 34t218.5 -52.5t169.5 -141.5t101 -201t35.5 -222.5t-22 -201.5t-66.5 -169.5t-107.5 -137.5q-135 -125 -341 -125q-299 0 -449 263q-89 155 -89 358zM337 637.5q0 -91.5 11.5 -164t39 -147.5t67 -133.5t101 -96 t137 -37.5t136.5 34t99 88t63.5 125t35.5 140.5t10 138.5t-11.5 142.5t-39 150.5t-67 137t-101 98.5t-131 38.5t-123 -24.5t-90.5 -66.5t-64 -95t-42 -115q-31 -122 -31 -213.5zM440 1307q4 131 74 174q28 17 72 17t135 -38.5t140 -38.5t69.5 27.5t28.5 79.5l49 -22 q-12 -201 -141 -201q-51 0 -141 39.5t-140 39.5t-70 -23.5t-28 -75.5z" />
<glyph unicode="&#xd6;" horiz-adv-x="1221" d="M149 600q0 203 89 361q96 171 259 235q88 34 202.5 34t218.5 -52.5t169.5 -141.5t101 -201t35.5 -222.5t-22 -201.5t-66.5 -169.5t-107.5 -137.5q-135 -125 -341 -125q-299 0 -449 263q-89 155 -89 358zM337 637.5q0 -91.5 11.5 -164t39 -147.5t67 -133.5t101 -96 t137 -37.5t136.5 34t99 88t63.5 125t35.5 140.5t10 138.5t-11.5 142.5t-39 150.5t-67 137t-101 98.5t-131 38.5t-123 -24.5t-90.5 -66.5t-64 -95t-42 -115q-31 -122 -31 -213.5zM456 1409.5q0 39.5 27 67.5t66 28t66.5 -28t27.5 -67.5t-27.5 -67t-67 -27.5t-66 27.5 t-26.5 67zM732 1409.5q0 39.5 27.5 67.5t66.5 28t66 -28t27 -67.5t-26.5 -67t-66 -27.5t-67 27.5t-27.5 67z" />
<glyph unicode="&#xd7;" horiz-adv-x="926" d="M144 743l82 83l292 -292l294 294l81 -85l-292 -292l280 -280l-83 -83l-280 280l-279 -280l-82 85l278 278z" />
<glyph unicode="&#xd8;" horiz-adv-x="1221" d="M106 1l160 194q-117 170 -117 405q0 203 89 361q96 171 259 235q88 34 190 34q197 0 333 -122l86 104h149l-157 -190q126 -176 126 -422q0 -202 -88 -358q-95 -167 -258 -230q-88 -33 -191 -33q-206 0 -345 128l-87 -106h-149zM337 647q0 -176 46 -310l547 661 q-96 154 -248 154q-177 0 -272 -186q-73 -143 -73 -319zM436 221q98 -162 256 -162q76 0 137 34t99 88t64 125q45 127 45 280.5t-53 298.5z" />
<glyph unicode="&#xd9;" horiz-adv-x="1043" d="M162 385l11 545q0 142 -10 279h174v-821q0 -136 84.5 -221t218.5 -85t218.5 85.5t84.5 220.5v821h101v-786q0 -199 -122 -322t-319 -123q-183 0 -309 108q-132 111 -132 299zM253 1522h191q64 -121 142 -223h-132z" />
<glyph unicode="&#xda;" horiz-adv-x="1043" d="M162 385l11 545q0 142 -10 279h174v-821q0 -136 84.5 -221t218.5 -85t218.5 85.5t84.5 220.5v821h101v-786q0 -199 -122 -322t-319 -123q-183 0 -309 108q-132 111 -132 299zM616 1300q83 104 142 223h191l-201 -223h-132z" />
<glyph unicode="&#xdb;" horiz-adv-x="1043" d="M162 385l11 545q0 142 -10 279h174v-821q0 -136 84.5 -221t218.5 -85t218.5 85.5t84.5 220.5v821h101v-786q0 -199 -122 -322t-319 -123q-183 0 -309 108q-132 111 -132 299zM377 1301q110 118 187 222h129q75 -112 183 -222h-162l-90 125l-93 -125h-154z" />
<glyph unicode="&#xdc;" horiz-adv-x="1043" d="M162 385l11 545q0 142 -10 279h174v-821q0 -136 84.5 -221t218.5 -85t218.5 85.5t84.5 220.5v821h101v-786q0 -199 -122 -322t-319 -123q-183 0 -309 108q-132 111 -132 299zM386 1409.5q0 39.5 27 67.5t66 28t66.5 -28t27.5 -67.5t-27.5 -67t-67 -27.5t-66 27.5 t-26.5 67zM662 1409.5q0 39.5 27.5 67.5t66.5 28t66 -28t27 -67.5t-26.5 -67t-66 -27.5t-67 27.5t-27.5 67z" />
<glyph unicode="&#xdd;" horiz-adv-x="957" d="M116 1209h204q92 -235 177 -375q25 -42 60 -95.5t50 -78.5l259 549h111l-300 -712q-12 -29 -12 -138t20 -359h-184v495zM586 1300q83 104 142 223h191l-201 -223h-132z" />
<glyph unicode="&#xde;" horiz-adv-x="954" d="M151 -2q29 307 29 606.5t-29 607.5h156v-210h209q114 0 213.5 -52t160.5 -147t61 -209.5t-61.5 -208.5t-161 -145.5t-212.5 -51.5h-209v-190h-156zM307 274h160q123 0 201.5 97.5t78.5 222.5q0 175 -125 272q-63 48 -144 48h-171v-640z" />
<glyph unicode="&#xdf;" horiz-adv-x="1069" d="M148 924.5q0 145.5 110 225.5t241 80q230 0 326 -134q81 -113 79 -320q-46 2 -84 2q-75 0 -132 -34t-57 -92q0 -73 136 -120q171 -60 232.5 -121.5t61.5 -174t-87.5 -190.5t-214 -78t-214.5 96q-28 30 -46 69l44 99q9 -68 70 -110.5t127 -42.5t96 26q53 46 53 96.5 t-17 76.5t-45 43.5t-64 30t-73 26.5q-97 34 -138 74q-62 61 -62 166t65.5 176t169.5 71q-3 123 -29 179q-53 113 -158.5 113t-153 -65.5t-47.5 -157.5v-934h-188q18 140 18 305.5t-9.5 319.5t-9.5 299.5z" />
<glyph unicode="&#xe0;" horiz-adv-x="999" d="M123 1228h191q64 -121 142 -223h-132zM153 243q0 134 99 196q87 55 222 75q156 24 229 48q-2 111 -58.5 185t-147.5 74t-158 -41.5t-100 -109.5l-57 60q59 81 149 125.5t192 44.5q156 0 256.5 -97.5t100.5 -253.5l-9 -255q0 -128 28 -301h-158l-4 134 q-44 -73 -125 -111.5t-188 -38.5t-189 72.5t-82 193.5zM323 256.5q0 -83.5 42.5 -130.5t129.5 -47t151.5 75t64.5 179q0 24 -5 147q-44 -17 -121.5 -31t-120.5 -29t-72 -34q-69 -46 -69 -129.5z" />
<glyph unicode="&#xe1;" d="M153 243q0 134 99 196q87 55 222 75q156 24 229 48q-2 111 -58.5 185t-147.5 74t-158 -41.5t-100 -109.5l-57 60q59 81 149 125.5t192 44.5q156 0 256.5 -97.5t100.5 -253.5l-9 -255q0 -128 28 -301h-158l-4 134q-44 -73 -125 -111.5t-188 -38.5t-189 72.5t-82 193.5z M323 256.5q0 -83.5 42.5 -130.5t129.5 -47t151.5 75t64.5 179q0 24 -5 147q-44 -17 -121.5 -31t-120.5 -29t-72 -34q-69 -46 -69 -129.5zM536 1008q83 104 142 223h191l-201 -223h-132z" />
<glyph unicode="&#xe2;" d="M153 243q0 134 99 196q87 55 222 75q156 24 229 48q-2 111 -58.5 185t-147.5 74t-158 -41.5t-100 -109.5l-57 60q59 81 149 125.5t192 44.5q156 0 256.5 -97.5t100.5 -253.5l-9 -255q0 -128 28 -301h-158l-4 134q-44 -73 -125 -111.5t-188 -38.5t-189 72.5t-82 193.5z M267 1008q110 118 187 222h129q75 -112 183 -222h-162l-90 125l-93 -125h-154zM323 256.5q0 -83.5 42.5 -130.5t129.5 -47t151.5 75t64.5 179q0 24 -5 147q-44 -17 -121.5 -31t-120.5 -29t-72 -34q-69 -46 -69 -129.5z" />
<glyph unicode="&#xe3;" d="M153 243q0 134 99 196q87 55 222 75q156 24 229 48q-2 111 -58.5 185t-147.5 74t-158 -41.5t-100 -109.5l-57 60q59 81 149 125.5t192 44.5q156 0 256.5 -97.5t100.5 -253.5l-9 -255q0 -128 28 -301h-158l-4 134q-44 -73 -125 -111.5t-188 -38.5t-189 72.5t-82 193.5z M240 1007q4 131 74 174q28 17 72 17t135 -38.5t140 -38.5t69.5 27.5t28.5 79.5l49 -22q-12 -201 -141 -201q-51 0 -141 39.5t-140 39.5t-70 -23.5t-28 -75.5zM323 256.5q0 -83.5 42.5 -130.5t129.5 -47t151.5 75t64.5 179q0 24 -5 147q-44 -17 -121.5 -31t-120.5 -29 t-72 -34q-69 -46 -69 -129.5z" />
<glyph unicode="&#xe4;" d="M153 243q0 134 99 196q87 55 222 75q156 24 229 48q-2 111 -58.5 185t-147.5 74t-158 -41.5t-100 -109.5l-57 60q59 81 149 125.5t192 44.5q156 0 256.5 -97.5t100.5 -253.5l-9 -255q0 -128 28 -301h-158l-4 134q-44 -73 -125 -111.5t-188 -38.5t-189 72.5t-82 193.5z M266 1109.5q0 39.5 27 67.5t66 28t66.5 -28t27.5 -67.5t-27.5 -67t-67 -27.5t-66 27.5t-26.5 67zM323 256.5q0 -83.5 42.5 -130.5t129.5 -47t151.5 75t64.5 179q0 24 -5 147q-44 -17 -121.5 -31t-120.5 -29t-72 -34q-69 -46 -69 -129.5zM542 1109.5q0 39.5 27.5 67.5 t66.5 28t66 -28t27 -67.5t-26.5 -67t-66 -27.5t-67 27.5t-27.5 67z" />
<glyph unicode="&#xe5;" d="M153 243q0 134 99 196q87 55 222 75q156 24 229 48q-2 111 -58.5 185t-147.5 74t-158 -41.5t-100 -109.5l-57 60q59 81 149 125.5t192 44.5q156 0 256.5 -97.5t100.5 -253.5l-9 -255q0 -128 28 -301h-158l-4 134q-44 -73 -125 -111.5t-188 -38.5t-189 72.5t-82 193.5z M323 256.5q0 -83.5 42.5 -130.5t129.5 -47t151.5 75t64.5 179q0 24 -5 147q-44 -17 -121.5 -31t-120.5 -29t-72 -34q-69 -46 -69 -129.5zM397 1103.5q0 43.5 31 74.5t74 31t73.5 -31t30.5 -74t-30.5 -74t-74 -31t-74 30.5t-30.5 74zM442 1104q0 -24 17.5 -42t42 -18t42 18 t17.5 42t-17.5 41.5t-42 17.5t-42 -17.5t-17.5 -41.5z" />
<glyph unicode="&#xe6;" horiz-adv-x="1513" d="M154 243q0 68 27.5 118.5t69 77.5t101.5 47.5t114 29.5q159 25 222 46q-2 106 -54 180q-55 79 -161 79q-74 0 -139 -42t-96 -109l-55 60q56 80 144 125t182 45q201 0 296 -152q122 152 312 152t291 -116t101 -300v-71h-632v-2q0 -151 72.5 -242.5t216.5 -91.5 q84 0 159 43.5t123 116.5l41 -89q-60 -78 -150.5 -121.5t-188.5 -43.5q-267 0 -368 155q-50 -85 -144.5 -123t-210 -38t-194.5 72.5t-79 193.5zM319 246q0 -72 41 -119t125.5 -47t147 75t62.5 178q0 49 -4 147q-31 -12 -88 -23.5t-101 -23t-88 -31.5q-95 -44 -95 -156z M884 501h454v5q0 111 -48 192q-54 89 -163.5 89t-174 -85.5t-68.5 -200.5z" />
<glyph unicode="&#xe7;" horiz-adv-x="811" d="M158 433q0 229 134 367q95 99 247 99t257 -154l-27 -76q-78 119 -202 119q-63 0 -111.5 -34.5t-75.5 -89.5q-55 -108 -55 -235q0 -123 51 -227q26 -53 72.5 -86t107.5 -33q136 0 208 138l42 -94q-92 -126 -226 -146l-40 -65q26 4 85 4t110 -30.5t51 -86t-29 -95 t-75 -61.5q-90 -44 -188 -44q-149 0 -198 86l81 40q38 -49 95 -49t102.5 33t45.5 77q0 38 -62.5 38t-123.5 -39l-35 46l88 145q-162 18 -247 156q-82 131 -82 297z" />
<glyph unicode="&#xe8;" horiz-adv-x="988" d="M151 440q0 201 123.5 330.5t311.5 129.5t292 -118t102 -306v-63h-652v-2q0 -152 75 -243t223 -91q85 0 162.5 42.5t128.5 117.5l43 -89q-64 -79 -156.5 -122t-193.5 -43q-206 0 -332.5 128t-126.5 329zM163 1228h191q64 -121 142 -223h-132zM336 501h467q3 140 -71 224 q-54 62 -156.5 62t-169 -85t-70.5 -201z" />
<glyph unicode="&#xe9;" horiz-adv-x="988" d="M151 440q0 201 123.5 330.5t311.5 129.5t292 -118t102 -306v-63h-652v-2q0 -152 75 -243t223 -91q85 0 162.5 42.5t128.5 117.5l43 -89q-64 -79 -156.5 -122t-193.5 -43q-206 0 -332.5 128t-126.5 329zM336 501h467q3 140 -71 224q-54 62 -156.5 62t-169 -85t-70.5 -201z M646 1008q83 104 142 223h191l-201 -223h-132z" />
<glyph unicode="&#xea;" horiz-adv-x="988" d="M151 440q0 201 123.5 330.5t311.5 129.5t292 -118t102 -306v-63h-652v-2q0 -152 75 -243t223 -91q85 0 162.5 42.5t128.5 117.5l43 -89q-64 -79 -156.5 -122t-193.5 -43q-206 0 -332.5 128t-126.5 329zM336 501h467q3 140 -71 224q-54 62 -156.5 62t-169 -85t-70.5 -201z M337 1008q110 118 187 222h129q75 -112 183 -222h-162l-90 125l-93 -125h-154z" />
<glyph unicode="&#xeb;" horiz-adv-x="988" d="M151 440q0 201 123.5 330.5t311.5 129.5t292 -118t102 -306v-63h-652v-2q0 -152 75 -243t223 -91q85 0 162.5 42.5t128.5 117.5l43 -89q-64 -79 -156.5 -122t-193.5 -43q-206 0 -332.5 128t-126.5 329zM336 501h467q3 140 -71 224q-54 62 -156.5 62t-169 -85t-70.5 -201z M356 1109.5q0 39.5 27 67.5t66 28t66.5 -28t27.5 -67.5t-27.5 -67t-67 -27.5t-66 27.5t-26.5 67zM632 1109.5q0 39.5 27.5 67.5t66.5 28t66 -28t27 -67.5t-26.5 -67t-66 -27.5t-67 27.5t-27.5 67z" />
<glyph unicode="&#xec;" horiz-adv-x="498" d="M113 1228h191q64 -121 142 -223h-132zM331 0q24 251 24 464t-24 409h163q-12 -273 -12 -481t12 -392h-163z" />
<glyph unicode="&#xed;" horiz-adv-x="508" d="M161 0q24 251 24 464t-24 409h163q-12 -273 -12 -481t12 -392h-163zM196 1008q83 104 142 223h191l-201 -223h-132z" />
<glyph unicode="&#xee;" horiz-adv-x="561" d="M117 1008q110 118 187 222h129q75 -112 183 -222h-162l-90 125l-93 -125h-154zM281 0q24 251 24 464t-24 409h163q-12 -273 -12 -481t12 -392h-163z" />
<glyph unicode="&#xef;" horiz-adv-x="556" d="M126 1109.5q0 39.5 27 67.5t66 28t66.5 -28t27.5 -67.5t-27.5 -67t-67 -27.5t-66 27.5t-26.5 67zM271 0q24 251 24 464t-24 409h163q-12 -273 -12 -481t12 -392h-163zM402 1109.5q0 39.5 27.5 67.5t66.5 28t66 -28t27 -67.5t-26.5 -67t-66 -27.5t-67 27.5t-27.5 67z" />
<glyph unicode="&#xf0;" horiz-adv-x="919" d="M155 364q0 163 96 274t256 111q81 0 167 -34q0 86 -34 165.5t-98 131.5l-99 -96l-65 66l82 79q-101 56 -194 81l30 85q131 -30 240 -93l97 92l64 -67l-79 -76q137 -111 217 -291t80 -336t-42.5 -255.5t-134.5 -160t-239 -60.5t-245.5 110.5t-98.5 273.5zM288 381 q0 -78 21.5 -143t73.5 -113.5t115 -48.5t103.5 26.5t63.5 69t34.5 90.5t11.5 107.5t-20 124t-70.5 113.5t-108 49t-93.5 -17t-60 -45t-41 -66q-30 -69 -30 -147z" />
<glyph unicode="&#xf1;" horiz-adv-x="908" d="M163 0q17 230 17 439t-17 439h147l19 -129q48 69 123 110.5t157 41.5q128 0 214 -85t86 -215l-13 -384q0 -93 13 -217h-168v519q0 193 -91 255q-37 25 -90 25q-96 0 -162.5 -74t-66.5 -173v-552h-168zM290 1007q4 131 74 174q28 17 72 17t135 -38.5t140 -38.5t69.5 27.5 t28.5 79.5l49 -22q-12 -201 -141 -201q-51 0 -141 39.5t-140 39.5t-70 -23.5t-28 -75.5z" />
<glyph unicode="&#xf2;" horiz-adv-x="994" d="M152 444q0 191 116.5 323.5t303.5 132.5t304.5 -132.5t117.5 -323.5q0 -125 -51 -231t-148.5 -171.5t-222.5 -65.5t-222.5 65.5t-147.5 171.5t-50 231zM153 1228h191q64 -121 142 -223h-132zM328 469.5q0 -89.5 12 -152.5t38 -124.5t75.5 -99t111 -37.5t106 25.5t71.5 66 t45 94t24.5 105t6.5 110.5t-12 119.5t-38.5 117.5t-76.5 91.5t-111.5 34.5t-105.5 -23.5t-71 -60.5t-45 -88q-30 -89 -30 -178.5z" />
<glyph unicode="&#xf3;" horiz-adv-x="994" d="M152 444q0 191 116.5 323.5t303.5 132.5t304.5 -132.5t117.5 -323.5q0 -125 -51 -231t-148.5 -171.5t-222.5 -65.5t-222.5 65.5t-147.5 171.5t-50 231zM328 469.5q0 -89.5 12 -152.5t38 -124.5t75.5 -99t111 -37.5t106 25.5t71.5 66t45 94t24.5 105t6.5 110.5t-12 119.5 t-38.5 117.5t-76.5 91.5t-111.5 34.5t-105.5 -23.5t-71 -60.5t-45 -88q-30 -89 -30 -178.5zM646 1008q83 104 142 223h191l-201 -223h-132z" />
<glyph unicode="&#xf4;" horiz-adv-x="994" d="M152 444q0 191 116.5 323.5t303.5 132.5t304.5 -132.5t117.5 -323.5q0 -125 -51 -231t-148.5 -171.5t-222.5 -65.5t-222.5 65.5t-147.5 171.5t-50 231zM317 1008q110 118 187 222h129q75 -112 183 -222h-162l-90 125l-93 -125h-154zM328 469.5q0 -89.5 12 -152.5 t38 -124.5t75.5 -99t111 -37.5t106 25.5t71.5 66t45 94t24.5 105t6.5 110.5t-12 119.5t-38.5 117.5t-76.5 91.5t-111.5 34.5t-105.5 -23.5t-71 -60.5t-45 -88q-30 -89 -30 -178.5z" />
<glyph unicode="&#xf5;" horiz-adv-x="994" d="M152 444q0 191 116.5 323.5t303.5 132.5t304.5 -132.5t117.5 -323.5q0 -125 -51 -231t-148.5 -171.5t-222.5 -65.5t-222.5 65.5t-147.5 171.5t-50 231zM320 1007q4 131 74 174q28 17 72 17t135 -38.5t140 -38.5t69.5 27.5t28.5 79.5l49 -22q-12 -201 -141 -201 q-51 0 -141 39.5t-140 39.5t-70 -23.5t-28 -75.5zM328 469.5q0 -89.5 12 -152.5t38 -124.5t75.5 -99t111 -37.5t106 25.5t71.5 66t45 94t24.5 105t6.5 110.5t-12 119.5t-38.5 117.5t-76.5 91.5t-111.5 34.5t-105.5 -23.5t-71 -60.5t-45 -88q-30 -89 -30 -178.5z" />
<glyph unicode="&#xf6;" horiz-adv-x="994" d="M152 444q0 191 116.5 323.5t303.5 132.5t304.5 -132.5t117.5 -323.5q0 -125 -51 -231t-148.5 -171.5t-222.5 -65.5t-222.5 65.5t-147.5 171.5t-50 231zM328 469.5q0 -89.5 12 -152.5t38 -124.5t75.5 -99t111 -37.5t106 25.5t71.5 66t45 94t24.5 105t6.5 110.5t-12 119.5 t-38.5 117.5t-76.5 91.5t-111.5 34.5t-105.5 -23.5t-71 -60.5t-45 -88q-30 -89 -30 -178.5zM336 1109.5q0 39.5 27 67.5t66 28t66.5 -28t27.5 -67.5t-27.5 -67t-67 -27.5t-66 27.5t-26.5 67zM612 1109.5q0 39.5 27.5 67.5t66.5 28t66 -28t27 -67.5t-26.5 -67t-66 -27.5 t-67 27.5t-27.5 67z" />
<glyph unicode="&#xf7;" horiz-adv-x="1029" d="M142 396v116h854v-116h-854zM441 181q0 55 38 87t90 32t91 -34.5t39 -85.5t-37.5 -89.5t-91.5 -38.5t-91.5 37t-37.5 92zM441 745q0 55 38 87.5t90 32.5t91 -35t39 -86t-37.5 -89t-91.5 -38t-91.5 36.5t-37.5 91.5z" />
<glyph unicode="&#xf8;" horiz-adv-x="994" d="M152 442q0 193 116.5 325.5t303.5 132.5q137 0 243 -77l42 54h123l-94 -120q108 -128 108 -313q0 -125 -51 -231t-148.5 -171.5t-227.5 -65.5t-229 73l-38 -49h-123l89 115q-114 134 -114 327zM328 444.5q0 -114.5 33 -208.5l384 496q-63 88 -171 88q-156 0 -216 -172 q-30 -89 -30 -203.5zM409 141q62 -85 161 -85q155 0 217 186q31 92 31 201.5t-26 191.5z" />
<glyph unicode="&#xf9;" d="M143 1228h191q64 -121 142 -223h-132zM148 879h173v-620q0 -79 40 -127.5t125.5 -48.5t165 68t79.5 161v567h168q-17 -226 -17 -439.5t17 -439.5h-158l-9 135q-48 -72 -127 -114t-181.5 -42t-187 71.5t-84.5 188.5l13 418q0 65 -17 222z" />
<glyph unicode="&#xfa;" d="M148 879h173v-620q0 -79 40 -127.5t125.5 -48.5t165 68t79.5 161v567h168q-17 -226 -17 -439.5t17 -439.5h-158l-9 135q-48 -72 -127 -114t-181.5 -42t-187 71.5t-84.5 188.5l13 418q0 65 -17 222zM546 1008q83 104 142 223h191l-201 -223h-132z" />
<glyph unicode="&#xfb;" d="M148 879h173v-620q0 -79 40 -127.5t125.5 -48.5t165 68t79.5 161v567h168q-17 -226 -17 -439.5t17 -439.5h-158l-9 135q-48 -72 -127 -114t-181.5 -42t-187 71.5t-84.5 188.5l13 418q0 65 -17 222zM267 1008q110 118 187 222h129q75 -112 183 -222h-162l-90 125l-93 -125 h-154z" />
<glyph unicode="&#xfc;" d="M148 879h173v-620q0 -79 40 -127.5t125.5 -48.5t165 68t79.5 161v567h168q-17 -226 -17 -439.5t17 -439.5h-158l-9 135q-48 -72 -127 -114t-181.5 -42t-187 71.5t-84.5 188.5l13 418q0 65 -17 222zM276 1109.5q0 39.5 27 67.5t66 28t66.5 -28t27.5 -67.5t-27.5 -67 t-67 -27.5t-66 27.5t-26.5 67zM552 1109.5q0 39.5 27.5 67.5t66.5 28t66 -28t27 -67.5t-26.5 -67t-66 -27.5t-67 27.5t-27.5 67z" />
<glyph unicode="&#xfd;" horiz-adv-x="878" d="M53 -267l15 87l29 1q-1 -42 27 -66.5t65 -24.5t66 17.5t44 34.5q64 73 82.5 112.5t29 72.5t11.5 36l-353 876h176q82 -346 207 -596q17 -35 60 -117l291 713h114l-360 -874q-23 -50 -37 -86t-38 -83.5t-63 -102.5t-91.5 -86t-112.5 -31t-105 28.5t-57 88.5zM566 1008 q83 104 142 223h191l-201 -223h-132z" />
<glyph unicode="&#xfe;" horiz-adv-x="982" d="M154 -360v1556h127v-410q102 135 286.5 135t303.5 -136.5t119 -331.5q0 -126 -52 -231.5t-151 -170t-227 -64.5q-177 0 -279 135v-482h-127zM281 335q0 -103 62.5 -173.5t148.5 -70.5t139 32.5t82.5 86.5t44 114.5t14.5 125.5t-14 126.5t-42.5 117t-80.5 89.5t-137 34 t-151 -72.5t-66 -175.5v-234z" />
<glyph unicode="&#xff;" horiz-adv-x="878" d="M53 -267l15 87l29 1q-1 -42 27 -66.5t65 -24.5t66 17.5t44 34.5q64 73 82.5 112.5t29 72.5t11.5 36l-353 876h176q82 -346 207 -596q17 -35 60 -117l291 713h114l-360 -874q-23 -50 -37 -86t-38 -83.5t-63 -102.5t-91.5 -86t-112.5 -31t-105 28.5t-57 88.5zM296 1109.5 q0 39.5 27 67.5t66 28t66.5 -28t27.5 -67.5t-27.5 -67t-67 -27.5t-66 27.5t-26.5 67zM572 1109.5q0 39.5 27.5 67.5t66.5 28t66 -28t27 -67.5t-26.5 -67t-66 -27.5t-67 27.5t-27.5 67z" />
<glyph unicode="&#x152;" horiz-adv-x="1648" d="M153 600q0 249 133 435q63 89 164 142t242.5 53t262.5 -87l-4 68q162 -15 327 -15t373 15v-80h-531v-418q88 -7 190.5 -7t232.5 10v-95h-423v-546h531v-79q-223 9 -359 9t-341 -9l4 67q-120 -84 -262 -84t-243 51.5t-164 138.5q-133 182 -133 431zM334 664.5 q0 -107.5 11.5 -180.5t38 -150t65.5 -137.5t100 -99t134 -38.5q164 0 253 161q28 46 31.5 64t3.5 77l8 214l-14 255q0 35 -5 57t-32 71q-98 194 -263 194q-74 0 -133 -35t-95 -89.5t-60 -126.5q-43 -129 -43 -236.5z" />
<glyph unicode="&#x153;" horiz-adv-x="1614" d="M155 444q0 191 113 323.5t294 132.5q211 0 328 -176q57 83 146 129.5t197 46.5q180 0 281 -118t99 -306l-1 -63h-632v-2q0 -152 73 -243t216 -91q82 0 157.5 42.5t124.5 117.5l42 -89q-62 -79 -152 -122t-188 -43q-238 0 -361 175q-55 -85 -139.5 -133.5t-198 -48.5 t-208 65.5t-143 171.5t-48.5 231zM325 445q0 -181 73 -297q58 -92 162 -92q150 0 210 186q31 93 31 183.5t-12 151t-37.5 117.5t-74 91.5t-115 34.5t-115.5 -34.5t-75 -92.5q-47 -108 -47 -248zM987 501h454q0 110 -45 193q-52 93 -163.5 93t-176 -84.5t-69.5 -201.5z" />
<glyph unicode="&#x2c6;" horiz-adv-x="653" d="M91 1003l214 221h150l210 -221h-163l-127 140l-131 -140h-153z" />
<glyph unicode="&#x2dc;" horiz-adv-x="691" d="M100 1008q3 121 82 162q28 15 67 15t74 -12.5t69 -26.5q93 -40 143 -40q98 0 113 107l41 -18q-8 -132 -83 -179q-27 -18 -66 -18t-74 12.5t-69 27.5q-91 40 -129.5 40t-57.5 -3.5t-34 -12.5q-28 -19 -36 -72z" />
<glyph unicode="&#x2000;" horiz-adv-x="764" />
<glyph unicode="&#x2001;" horiz-adv-x="1528" />
<glyph unicode="&#x2002;" horiz-adv-x="764" />
<glyph unicode="&#x2003;" horiz-adv-x="1528" />
<glyph unicode="&#x2004;" horiz-adv-x="509" />
<glyph unicode="&#x2005;" horiz-adv-x="382" />
<glyph unicode="&#x2006;" horiz-adv-x="254" />
<glyph unicode="&#x2007;" horiz-adv-x="254" />
<glyph unicode="&#x2008;" horiz-adv-x="191" />
<glyph unicode="&#x2009;" horiz-adv-x="305" />
<glyph unicode="&#x200a;" horiz-adv-x="84" />
<glyph unicode="&#x2010;" horiz-adv-x="737" d="M148 383v117h595v-117h-595z" />
<glyph unicode="&#x2011;" horiz-adv-x="737" d="M148 383v117h595v-117h-595z" />
<glyph unicode="&#x2012;" horiz-adv-x="737" d="M148 383v117h595v-117h-595z" />
<glyph unicode="&#x2013;" horiz-adv-x="881" d="M100 382v117h791v-117h-791z" />
<glyph unicode="&#x2014;" horiz-adv-x="1333" d="M105 383v117h1231v-117h-1231z" />
<glyph unicode="&#x2018;" horiz-adv-x="363" d="M96 909q0 82 50.5 177.5t127.5 146.5l54 -48q-42 -34 -75 -80t-33 -83t26 -37q54 0 87 -39.5t33 -95t-38 -90.5t-100.5 -35t-97 51t-34.5 133z" />
<glyph unicode="&#x2019;" horiz-adv-x="367" d="M96 1105.5q0 55.5 37.5 90.5t100 35t97.5 -52.5t35 -133t-51 -178.5t-126 -144l-54 47q41 34 74.5 81.5t33.5 83.5t-29 36q-53 0 -85.5 39.5t-32.5 95z" />
<glyph unicode="&#x201a;" horiz-adv-x="356" d="M96 107.5q0 55.5 38 90.5t94 35q136 0 136 -173q0 -84 -48.5 -182.5t-126.5 -150.5l-54 48q41 33 74.5 80.5t33.5 84t-29 36.5q-54 0 -86 38t-32 93.5z" />
<glyph unicode="&#x201c;" horiz-adv-x="738" d="M100 909q0 82 50.5 177.5t126.5 146.5l55 -47q-41 -34 -74.5 -81t-33.5 -83.5t28 -36.5q54 0 86 -39.5t32 -95t-38 -90.5t-100.5 -35t-97 51t-34.5 133zM469 909q0 82 50.5 177.5t126.5 146.5l55 -47q-41 -35 -75 -82t-34 -83t29 -36q53 0 85.5 -40t32.5 -95t-37.5 -90 t-100.5 -35t-97.5 51t-34.5 133z" />
<glyph unicode="&#x201d;" horiz-adv-x="734" d="M100 1105.5q0 55.5 37.5 90.5t100 35t97.5 -52.5t35 -133t-51 -178.5t-126 -144l-54 47q41 34 74.5 81.5t33.5 83.5t-29 36q-53 0 -85.5 39.5t-32.5 95zM469 1105.5q0 55.5 37.5 90.5t100 35t97.5 -52.5t35 -133t-51 -178.5t-125 -144l-56 47q42 34 75 80.5t33 83.5 t-27 37q-54 0 -86.5 39.5t-32.5 95z" />
<glyph unicode="&#x201e;" horiz-adv-x="735" d="M104 107.5q0 55.5 38 90.5t95 35q136 0 136 -173q0 -84 -48.5 -182.5t-126.5 -150.5l-54 48q40 34 73.5 81t33.5 83.5t-28 36.5q-54 0 -86.5 38t-32.5 93.5zM470 108q0 55 38 90t94 35q137 0 137 -174q0 -83 -49 -182t-127 -150l-55 48q41 33 74.5 80t33.5 84t-28 37 q-54 0 -86 38.5t-32 93.5z" />
<glyph unicode="&#x2022;" horiz-adv-x="504" d="M96 589q0 83 62.5 142.5t146.5 59.5t146.5 -59.5t62.5 -142.5t-62.5 -144t-146.5 -61t-146.5 61t-62.5 144z" />
<glyph unicode="&#x2026;" horiz-adv-x="1122" d="M93 111q0 57 40 90.5t94 33.5t94.5 -36t40.5 -89t-38.5 -91.5t-95 -38.5t-96 37t-39.5 94zM473 111q0 57 39.5 90.5t93.5 33.5t94.5 -36t40.5 -89t-38.5 -91.5t-95 -38.5t-95.5 37t-39 94zM852 111q0 57 39.5 90.5t94 33.5t95 -36t40.5 -89t-39 -91.5t-95.5 -38.5 t-95.5 37t-39 94z" />
<glyph unicode="&#x202f;" horiz-adv-x="305" />
<glyph unicode="&#x2039;" horiz-adv-x="459" d="M93 449q155 209 266 453h116l-207 -453l207 -451h-116q-109 240 -266 451z" />
<glyph unicode="&#x203a;" horiz-adv-x="502" d="M123 -2l207 451l-207 453h116q111 -244 266 -453q-157 -211 -266 -451h-116z" />
<glyph unicode="&#x205f;" horiz-adv-x="382" />
<glyph unicode="&#x20ac;" horiz-adv-x="1108" d="M102 381v122h109q-5 55 -5 107t5 92h-109v121h131q50 188 182.5 297t324.5 109q216 0 373 -145l-72 -69q-141 127 -283 127q-198 0 -292 -196q-26 -56 -42 -123q144 -10 294.5 -10t323.5 10v-121h-636q-4 -43 -4 -98.5t4 -100.5h636v-122q-156 9 -311.5 9t-306.5 -9 q34 -143 121 -229.5t233 -86.5t289 128l73 -68q-157 -145 -370.5 -145t-349 105.5t-187.5 295.5h-131z" />
<glyph unicode="&#x25fc;" horiz-adv-x="880" d="M0 0v880h880v-880h-880z" />
</font>
</defs>
</svg>
